<mxfile host="Electron" modified="2021-09-09T01:10:24.008Z" agent="5.0 (X11; Linux x86_64) AppleWebKit/537.36 (KHTML, like Gecko) draw.io/14.6.13 Chrome/91.0.4472.164 Electron/13.1.9 Safari/537.36" etag="nCa3mFV9WWBRU70zjB1g" compressed="false" version="14.6.13" type="device">
  <diagram id="prtHgNgQTEPvFCAcTncT" name="Page-1">
    <mxGraphModel dx="563" dy="330" grid="1" gridSize="10" guides="1" tooltips="1" connect="1" arrows="1" fold="1" page="1" pageScale="1" pageWidth="827" pageHeight="1169" math="0" shadow="0">
      <root>
        <mxCell id="0" />
        <mxCell id="1" parent="0" />
        <mxCell id="nJpLhMaxpBL_8RbxLvkc-21" style="edgeStyle=orthogonalEdgeStyle;rounded=0;orthogonalLoop=1;jettySize=auto;html=1;exitX=1;exitY=0.5;exitDx=0;exitDy=0;entryX=0;entryY=0.5;entryDx=0;entryDy=0;" edge="1" parent="1" source="nJpLhMaxpBL_8RbxLvkc-9" target="nJpLhMaxpBL_8RbxLvkc-16">
          <mxGeometry relative="1" as="geometry" />
        </mxCell>
        <mxCell id="nJpLhMaxpBL_8RbxLvkc-9" value="Bedtools" style="rounded=1;whiteSpace=wrap;html=1;fontSize=10;fillColor=#dae8fc;strokeColor=#6c8ebf;gradientColor=#ffffff;" vertex="1" parent="1">
          <mxGeometry x="280" y="320" width="80" height="40" as="geometry" />
        </mxCell>
        <mxCell id="nJpLhMaxpBL_8RbxLvkc-18" style="edgeStyle=orthogonalEdgeStyle;rounded=0;orthogonalLoop=1;jettySize=auto;html=1;exitX=1;exitY=0.5;exitDx=0;exitDy=0;entryX=0.5;entryY=0;entryDx=0;entryDy=0;" edge="1" parent="1" source="nJpLhMaxpBL_8RbxLvkc-11" target="nJpLhMaxpBL_8RbxLvkc-9">
          <mxGeometry relative="1" as="geometry" />
        </mxCell>
        <mxCell id="nJpLhMaxpBL_8RbxLvkc-11" value="File vcf" style="ellipse;whiteSpace=wrap;html=1;fontSize=10;gradientColor=#ffffff;fillColor=#CCFF99;strokeColor=#CCFF99;" vertex="1" parent="1">
          <mxGeometry x="160" y="280" width="80" height="40" as="geometry" />
        </mxCell>
        <mxCell id="nJpLhMaxpBL_8RbxLvkc-20" style="edgeStyle=orthogonalEdgeStyle;rounded=0;orthogonalLoop=1;jettySize=auto;html=1;exitX=1;exitY=0.5;exitDx=0;exitDy=0;entryX=0.5;entryY=1;entryDx=0;entryDy=0;" edge="1" parent="1" source="nJpLhMaxpBL_8RbxLvkc-13" target="nJpLhMaxpBL_8RbxLvkc-9">
          <mxGeometry relative="1" as="geometry" />
        </mxCell>
        <mxCell id="nJpLhMaxpBL_8RbxLvkc-13" value="File gtf" style="ellipse;whiteSpace=wrap;html=1;fontSize=10;gradientColor=#ffffff;fillColor=#CCFF99;strokeColor=#CCFF99;" vertex="1" parent="1">
          <mxGeometry x="160" y="360" width="80" height="40" as="geometry" />
        </mxCell>
        <mxCell id="nJpLhMaxpBL_8RbxLvkc-16" value="File vcf" style="ellipse;whiteSpace=wrap;html=1;fontSize=10;fillColor=#f8cecc;strokeColor=#b85450;gradientColor=#ffffff;" vertex="1" parent="1">
          <mxGeometry x="400" y="320" width="80" height="40" as="geometry" />
        </mxCell>
      </root>
    </mxGraphModel>
  </diagram>
</mxfile>
